<?xml version="1.0" encoding="UTF-8"?>
<svg width="54px" height="59px" viewBox="0 0 54 59" version="1.1" xmlns="http://www.w3.org/2000/svg" xmlns:xlink="http://www.w3.org/1999/xlink">
  <path d="M3.85714286,50.1428571 L12.5357143,50.1428571 L12.5357143,41.4642857 L3.85714286,41.4642857 L3.85714286,50.1428571 Z M14.4642857,50.1428571 L24.1071429,50.1428571 L24.1071429,41.4642857 L14.4642857,41.4642857 L14.4642857,50.1428571 Z M3.85714286,39.5357143 L12.5357143,39.5357143 L12.5357143,29.8928571 L3.85714286,29.8928571 L3.85714286,39.5357143 Z M14.4642857,39.5357143 L24.1071429,39.5357143 L24.1071429,29.8928571 L14.4642857,29.8928571 L14.4642857,39.5357143 Z M3.85714286,27.9642857 L12.5357143,27.9642857 L12.5357143,19.2857143 L3.85714286,19.2857143 L3.85714286,27.9642857 Z M26.0357143,50.1428571 L35.6785714,50.1428571 L35.6785714,41.4642857 L26.0357143,41.4642857 L26.0357143,50.1428571 Z M14.4642857,27.9642857 L24.1071429,27.9642857 L24.1071429,19.2857143 L14.4642857,19.2857143 L14.4642857,27.9642857 Z M37.6071429,50.1428571 L46.2857143,50.1428571 L46.2857143,41.4642857 L37.6071429,41.4642857 L37.6071429,50.1428571 Z M26.0357143,39.5357143 L35.6785714,39.5357143 L35.6785714,29.8928571 L26.0357143,29.8928571 L26.0357143,39.5357143 Z M15.4285714,13.5 L15.4285714,4.82142857 C15.4285714,4.56026786 15.3331473,4.33426339 15.1422991,4.14341518 C14.9514509,3.95256696 14.7254464,3.85714286 14.4642857,3.85714286 L12.5357143,3.85714286 C12.2745536,3.85714286 12.0485491,3.95256696 11.8577009,4.14341518 C11.6668527,4.33426339 11.5714286,4.56026786 11.5714286,4.82142857 L11.5714286,13.5 C11.5714286,13.7611607 11.6668527,13.9871652 11.8577009,14.1780134 C12.0485491,14.3688616 12.2745536,14.4642857 12.5357143,14.4642857 L14.4642857,14.4642857 C14.7254464,14.4642857 14.9514509,14.3688616 15.1422991,14.1780134 C15.3331473,13.9871652 15.4285714,13.7611607 15.4285714,13.5 Z M37.6071429,39.5357143 L46.2857143,39.5357143 L46.2857143,29.8928571 L37.6071429,29.8928571 L37.6071429,39.5357143 Z M26.0357143,27.9642857 L35.6785714,27.9642857 L35.6785714,19.2857143 L26.0357143,19.2857143 L26.0357143,27.9642857 Z M37.6071429,27.9642857 L46.2857143,27.9642857 L46.2857143,19.2857143 L37.6071429,19.2857143 L37.6071429,27.9642857 Z M38.5714286,13.5 L38.5714286,4.82142857 C38.5714286,4.56026786 38.4760045,4.33426339 38.2851563,4.14341518 C38.094308,3.95256696 37.8683036,3.85714286 37.6071429,3.85714286 L35.6785714,3.85714286 C35.4174107,3.85714286 35.1914062,3.95256696 35.000558,4.14341518 C34.8097098,4.33426339 34.7142857,4.56026786 34.7142857,4.82142857 L34.7142857,13.5 C34.7142857,13.7611607 34.8097098,13.9871652 35.000558,14.1780134 C35.1914062,14.3688616 35.4174107,14.4642857 35.6785714,14.4642857 L37.6071429,14.4642857 C37.8683036,14.4642857 38.094308,14.3688616 38.2851563,14.1780134 C38.4760045,13.9871652 38.5714286,13.7611607 38.5714286,13.5 Z M50.1428571,11.5714286 L50.1428571,50.1428571 C50.1428571,51.1875 49.7611607,52.0915179 48.9977679,52.8549107 C48.234375,53.6183036 47.3303571,54 46.2857143,54 L3.85714286,54 C2.8125,54 1.90848214,53.6183036 1.14508929,52.8549107 C0.381696429,52.0915179 0,51.1875 0,50.1428571 L0,11.5714286 C0,10.5267857 0.381696429,9.62276786 1.14508929,8.859375 C1.90848214,8.09598214 2.8125,7.71428571 3.85714286,7.71428571 L7.71428571,7.71428571 L7.71428571,4.82142857 C7.71428571,3.49553571 8.18638393,2.36049107 9.13058036,1.41629464 C10.0747768,0.472098214 11.2098214,0 12.5357143,0 L14.4642857,0 C15.7901786,0 16.9252232,0.472098214 17.8694196,1.41629464 C18.8136161,2.36049107 19.2857143,3.49553571 19.2857143,4.82142857 L19.2857143,7.71428571 L30.8571429,7.71428571 L30.8571429,4.82142857 C30.8571429,3.49553571 31.3292411,2.36049107 32.2734375,1.41629464 C33.2176339,0.472098214 34.3526786,0 35.6785714,0 L37.6071429,0 C38.9330357,0 40.0680804,0.472098214 41.0122768,1.41629464 C41.9564732,2.36049107 42.4285714,3.49553571 42.4285714,4.82142857 L42.4285714,7.71428571 L46.2857143,7.71428571 C47.3303571,7.71428571 48.234375,8.09598214 48.9977679,8.859375 C49.7611607,9.62276786 50.1428571,10.5267857 50.1428571,11.5714286 Z" id="Shape"></path>
</svg>
